<svg preserveAspectRatio="none" width="100%" height="100%" overflow="visible" style="display: block;" viewBox="0 0 342 189" fill="none" xmlns="http://www.w3.org/2000/svg">
<g id="Frame" clip-path="url(#clip0_0_20)">
<path id="Vector" d="M183.852 36.19C175.772 -27.1 182.572 -265 182.572 -265H159.062C159.062 -265 165.862 -27.1 157.792 36.19C149.722 99.49 38.0122 -22.34 -0.0078125 68.85H312.832H341.632C303.622 -22.33 191.922 99.49 183.852 36.19Z" fill="var(--fill-0, #EA8E00)"/>
<path id="Vector_2" opacity="0.5" d="M177.813 36.19C173.483 -27.1 177.133 -265 177.133 -265H164.523C164.523 -265 168.173 -27.1 163.843 36.19C159.513 99.49 79.2031 20.42 79.2031 68.85H247.003H262.453C265.863 24.54 182.143 99.49 177.813 36.19Z" fill="var(--fill-0, #EA8E00)"/>
<path id="Vector_3" opacity="0.5" d="M154.252 71.7597C136.082 63.6897 117.402 56.2297 97.7516 53.2397C78.1016 50.2397 57.2016 52.0097 39.7616 61.5497C22.3216 71.0997 8.98156 89.2397 8.35156 109.11C19.4916 108.57 32.4316 108.23 43.3716 110.39C49.8716 90.2197 67.1616 76.7697 87.4616 70.6797C107.752 64.5797 134.142 65.0597 154.252 71.7597Z" fill="var(--fill-0, #EA8E00)"/>
<path id="Vector_4" opacity="0.5" d="M158.498 73.3337C141.378 63.2237 123.688 53.6638 104.508 48.4238C85.3278 43.1838 64.3678 42.5238 45.9378 50.0038C27.5178 57.4738 12.1778 73.9637 9.25781 93.6237C20.3878 94.3737 33.2778 95.5238 43.8978 98.9238C52.6778 79.6338 71.4078 68.2637 92.2678 64.5537C113.138 60.8437 139.298 64.3637 158.498 73.3337Z" fill="var(--fill-0, #EA8E00)"/>
<path id="Vector_5" opacity="0.5" d="M212.281 61.8756C222.301 57.4256 232.601 53.3156 243.441 51.6556C254.281 50.0056 265.811 50.9757 275.421 56.2357C285.041 61.5057 292.391 71.5056 292.741 82.4656C286.591 82.1656 279.461 81.9756 273.421 83.1656C269.841 72.0456 260.301 64.6257 249.111 61.2657C237.921 57.9157 223.361 58.1756 212.281 61.8756Z" fill="var(--fill-0, #EA8E00)"/>
<path id="Vector_6" opacity="0.5" d="M191.062 74.9216C202.592 67.9416 214.513 61.3216 227.473 57.6216C240.433 53.9216 254.643 53.3116 267.193 58.2416C279.743 63.1716 290.263 74.2216 292.393 87.5416C284.853 88.1316 276.123 89.0116 268.943 91.4016C262.843 78.3916 250.063 70.8316 235.883 68.4716C221.713 66.1116 204.002 68.6916 191.062 74.9216Z" fill="var(--fill-0, #EA8E00)"/>
<path id="Vector_7" opacity="0.5" d="M173.156 -265C173.156 -265 174.416 -12.71 176.176 -12.01C177.946 -11.31 177.126 -265 177.126 -265H173.156Z" fill="var(--fill-0, #EA8E00)"/>
<path id="Vector_8" opacity="0.5" d="M179.23 -121.075C179.23 -118.425 177.44 -116.275 175.24 -116.275C173.04 -116.275 171.25 -118.425 171.25 -121.075C171.25 -123.725 173.03 -125.875 175.24 -125.875C177.44 -125.865 179.23 -123.725 179.23 -121.075Z" fill="var(--fill-0, #EA8E00)"/>
<path id="Vector_9" opacity="0.5" d="M167.763 -72.1969C169.967 -72.1969 171.753 -74.3459 171.753 -76.9969C171.753 -79.6478 169.967 -81.7969 167.763 -81.7969C165.56 -81.7969 163.773 -79.6478 163.773 -76.9969C163.773 -74.3459 165.56 -72.1969 167.763 -72.1969Z" fill="var(--fill-0, #EA8E00)"/>
<path id="Vector_10" opacity="0.5" d="M173.959 -111.684C173.959 -110.214 172.969 -109.024 171.749 -109.024C170.529 -109.024 169.539 -110.214 169.539 -111.684C169.539 -113.154 170.529 -114.344 171.749 -114.344C172.969 -114.344 173.959 -113.154 173.959 -111.684Z" fill="var(--fill-0, #EA8E00)"/>
<path id="Vector_11" opacity="0.5" d="M167.764 -130.246C167.764 -128.776 166.774 -127.586 165.554 -127.586C164.334 -127.586 163.344 -128.776 163.344 -130.246C163.344 -131.716 164.334 -132.906 165.554 -132.906C166.774 -132.906 167.764 -131.716 167.764 -130.246Z" fill="var(--fill-0, #EA8E00)"/>
<path id="Vector_12" opacity="0.5" d="M169.542 -54.7391C169.542 -52.0891 167.753 -49.9391 165.553 -49.9391C163.353 -49.9391 161.562 -52.0891 161.562 -54.7391C161.562 -57.3891 163.343 -59.5391 165.553 -59.5391C167.753 -59.5391 169.542 -57.3891 169.542 -54.7391Z" fill="var(--fill-0, #EA8E00)"/>
<path id="Vector_13" opacity="0.5" d="M179.23 5.26096C179.23 7.91096 177.44 10.0609 175.24 10.0609C173.04 10.0609 171.25 7.91096 171.25 5.26096C171.25 2.61096 173.03 0.460938 175.24 0.460938C177.44 0.460938 179.23 2.61096 179.23 5.26096Z" fill="var(--fill-0, #EA8E00)"/>
<path id="Vector_14" opacity="0.5" d="M179.23 62.5031C179.23 65.1531 177.44 67.3031 175.24 67.3031C173.04 67.3031 171.25 65.1531 171.25 62.5031C171.25 59.8531 173.03 57.7031 175.24 57.7031C177.44 57.7031 179.23 59.8531 179.23 62.5031Z" fill="var(--fill-0, #EA8E00)"/>
<path id="Vector_15" opacity="0.5" d="M159.347 57.6985C159.347 60.3485 157.567 62.4984 155.357 62.4984C153.157 62.4984 151.367 60.3485 151.367 57.6985C151.367 55.0485 153.147 52.8984 155.357 52.8984C157.567 52.8984 159.347 55.0485 159.347 57.6985Z" fill="var(--fill-0, #EA8E00)"/>
<path id="Vector_16" opacity="0.5" d="M179.232 50.0688C181.436 50.0688 183.222 47.9197 183.222 45.2687C183.222 42.6178 181.436 40.4688 179.232 40.4688C177.029 40.4688 175.242 42.6178 175.242 45.2687C175.242 47.9197 177.029 50.0688 179.232 50.0688Z" fill="var(--fill-0, #EA8E00)"/>
<path id="Vector_17" opacity="0.5" d="M169.542 33.6906C169.542 36.3406 167.753 38.4906 165.553 38.4906C163.353 38.4906 161.562 36.3406 161.562 33.6906C161.562 31.0406 163.343 28.8906 165.553 28.8906C167.753 28.9006 169.542 31.0406 169.542 33.6906Z" fill="var(--fill-0, #EA8E00)"/>
<path id="Vector_18" opacity="0.5" d="M189.628 57.6985C189.628 60.3485 187.848 62.4984 185.638 62.4984C183.438 62.4984 181.648 60.3485 181.648 57.6985C181.648 55.0485 183.428 52.8984 185.638 52.8984C187.848 52.8984 189.628 55.0485 189.628 57.6985Z" fill="var(--fill-0, #EA8E00)"/>
<path id="Vector_19" opacity="0.5" d="M171.748 -25.84C171.748 -24.37 170.758 -23.18 169.538 -23.18C168.318 -23.18 167.328 -24.37 167.328 -25.84C167.328 -27.31 168.318 -28.5 169.538 -28.5C170.758 -28.5 171.748 -27.31 171.748 -25.84Z" fill="var(--fill-0, #EA8E00)"/>
<path id="Vector_20" opacity="0.5" d="M173.959 14.66C173.959 16.13 172.969 17.32 171.749 17.32C170.529 17.32 169.539 16.13 169.539 14.66C169.539 13.19 170.529 12 171.749 12C172.969 12 173.959 13.19 173.959 14.66Z" fill="var(--fill-0, #EA8E00)"/>
<path id="Vector_21" opacity="0.5" d="M167.764 -3.91815C167.764 -2.44815 166.774 -1.25815 165.554 -1.25815C164.334 -1.25815 163.344 -2.44815 163.344 -3.91815C163.344 -5.38815 164.334 -6.57812 165.554 -6.57812C166.774 -6.57812 167.764 -5.38815 167.764 -3.91815Z" fill="var(--fill-0, #EA8E00)"/>
<path id="Vector_22" opacity="0.5" d="M177.451 31.035C177.451 32.505 176.461 33.695 175.241 33.695C174.021 33.695 173.031 32.505 173.031 31.035C173.031 29.565 174.021 28.375 175.241 28.375C176.461 28.375 177.451 29.565 177.451 31.035Z" fill="var(--fill-0, #EA8E00)"/>
<path id="Vector_23" opacity="0.5" d="M163.772 50.0663C163.772 51.5363 162.782 52.7263 161.562 52.7263C160.342 52.7263 159.352 51.5363 159.352 50.0663C159.352 48.5963 160.342 47.4063 161.562 47.4063C162.782 47.3963 163.772 48.5963 163.772 50.0663Z" fill="var(--fill-0, #EA8E00)"/>
<path id="Vector_24" opacity="0.5" d="M173.029 52.7303C173.029 54.2003 172.039 55.3903 170.819 55.3903C169.599 55.3903 168.609 54.2003 168.609 52.7303C168.609 51.2603 169.599 50.0703 170.819 50.0703C172.039 50.0703 173.029 51.2603 173.029 52.7303Z" fill="var(--fill-0, #EA8E00)"/>
<g id="Group">
<path id="Vector_25" d="M193.061 38.6429C194.771 35.9729 197.681 34.1629 200.801 33.6229C202.821 33.2729 205.041 33.4729 206.681 34.7029C208.321 35.9329 209.121 38.3729 208.081 40.1329C207.171 41.6829 205.241 42.2629 203.471 42.5429C201.701 42.8129 199.801 42.9329 198.341 43.9729C196.371 45.3729 194.561 49.2129 192.001 46.5729C190.261 44.8029 191.981 40.3229 193.061 38.6429Z" fill="var(--fill-0, #EA8E00)"/>
<path id="Vector_26" d="M199.421 48.2952C200.811 47.4452 202.561 47.2552 204.121 47.7052C205.131 47.9952 206.111 48.5852 206.591 49.5152C207.071 50.4452 206.901 51.7552 206.021 52.3352C205.251 52.8452 204.231 52.6852 203.351 52.4152C202.471 52.1452 201.571 51.7752 200.661 51.9252C199.441 52.1352 197.741 53.4952 197.151 51.7152C196.751 50.5152 198.551 48.8252 199.421 48.2952Z" fill="var(--fill-0, #EA8E00)"/>
</g>
<g id="Group_2">
<path id="Vector_27" d="M142.487 36.1741C140.777 33.5041 137.867 31.6941 134.747 31.1541C132.727 30.8041 130.507 31.0041 128.867 32.2341C127.227 33.4641 126.427 35.9041 127.467 37.6641C128.377 39.2141 130.307 39.7941 132.077 40.0741C133.847 40.3441 135.747 40.4641 137.207 41.5041C139.177 42.9041 140.987 46.7441 143.547 44.1041C145.277 42.3341 143.557 37.8541 142.487 36.1741Z" fill="var(--fill-0, #EA8E00)"/>
<path id="Vector_28" d="M23.7587 123.005C23.7622 126.176 25.24 129.268 27.5784 131.403C29.0922 132.785 31.0707 133.812 33.1149 133.658C35.1592 133.505 37.147 131.879 37.2182 129.836C37.2858 128.04 35.9717 126.512 34.6309 125.323C33.2846 124.143 31.7482 123.019 31.0777 121.356C30.1714 119.116 30.7135 114.905 27.1349 115.752C24.7241 116.312 23.7615 121.013 23.7587 123.005Z" fill="var(--fill-0, #EA8E00)"/>
<path id="Vector_29" d="M278.759 111.005C278.762 114.176 280.24 117.268 282.578 119.403C284.092 120.785 286.071 121.812 288.115 121.658C290.159 121.505 292.147 119.879 292.218 117.836C292.286 116.04 290.972 114.512 289.631 113.323C288.285 112.143 286.748 111.019 286.078 109.356C285.171 107.116 285.714 102.905 282.135 103.752C279.724 104.312 278.762 109.013 278.759 111.005Z" fill="var(--fill-0, #EA8E00)"/>
<path id="Vector_30" d="M143.488 34.4585C143.258 31.2985 144.508 28.0985 146.678 25.7985C148.088 24.3085 149.978 23.1385 152.028 23.1485C154.078 23.1485 156.178 24.6285 156.408 26.6585C156.608 28.4385 155.408 30.0685 154.158 31.3485C152.898 32.6285 151.458 33.8585 150.908 35.5685C150.168 37.8685 151.018 42.0285 147.388 41.4485C144.938 41.0685 143.638 36.4485 143.488 34.4585Z" fill="var(--fill-0, #EA8E00)"/>
<path id="Vector_31" d="M21.9961 123.908C20.4886 126.694 17.7124 128.718 14.6454 129.488C12.655 129.984 10.4324 129.953 8.71028 128.841C6.98276 127.737 6.00991 125.359 6.90902 123.525C7.69881 121.917 9.58762 121.189 11.3301 120.784C13.0811 120.383 14.9568 120.122 16.3409 118.977C18.2028 117.438 19.7262 113.474 22.4729 115.917C24.3329 117.557 22.9411 122.15 21.9961 123.908Z" fill="var(--fill-0, #EA8E00)"/>
<path id="Vector_32" d="M276.996 111.908C275.489 114.694 272.712 116.718 269.645 117.488C267.655 117.984 265.432 117.953 263.71 116.841C261.983 115.737 261.01 113.359 261.909 111.525C262.699 109.917 264.588 109.189 266.33 108.784C268.081 108.383 269.957 108.122 271.341 106.977C273.203 105.438 274.726 101.474 277.473 103.917C279.333 105.557 277.941 110.15 276.996 111.908Z" fill="var(--fill-0, #EA8E00)"/>
<path id="Vector_33" d="M136.261 45.8499C134.871 44.9999 133.121 44.8099 131.561 45.2599C130.551 45.5499 129.571 46.1399 129.091 47.0699C128.611 47.9999 128.781 49.3099 129.661 49.8899C130.431 50.3999 131.451 50.2399 132.331 49.9699C133.211 49.6999 134.111 49.3299 135.021 49.4799C136.241 49.6899 137.941 51.0499 138.531 49.2699C138.931 48.0799 137.131 46.3899 136.261 45.8499Z" fill="var(--fill-0, #EA8E00)"/>
<path id="Vector_34" d="M34.2203 118.2C34.934 119.665 36.3065 120.767 37.8634 121.228C38.8706 121.527 40.0141 121.558 40.9193 121.032C41.8245 120.507 42.3865 119.312 41.9572 118.349C41.5829 117.505 40.6372 117.09 39.7503 116.844C38.8633 116.598 37.9057 116.425 37.2196 115.809C36.3046 114.975 35.6042 112.914 34.1487 114.096C33.1709 114.884 33.7779 117.277 34.2203 118.2Z" fill="var(--fill-0, #EA8E00)"/>
<path id="Vector_35" d="M289.22 106.2C289.934 107.665 291.307 108.767 292.863 109.228C293.871 109.527 295.014 109.558 295.919 109.032C296.825 108.507 297.387 107.312 296.957 106.349C296.583 105.505 295.637 105.09 294.75 104.844C293.863 104.598 292.906 104.425 292.22 103.809C291.305 102.975 290.604 100.914 289.149 102.096C288.171 102.884 288.778 105.277 289.22 106.2Z" fill="var(--fill-0, #EA8E00)"/>
</g>
<path id="Vector_36" d="M121.407 42.0587C121.407 42.9387 120.697 43.6487 119.817 43.6487C118.937 43.6487 118.227 42.9387 118.227 42.0587C118.227 41.1787 118.937 40.4688 119.817 40.4688C120.697 40.4688 121.407 41.1787 121.407 42.0587Z" fill="var(--fill-0, #EA8E00)"/>
<path id="Vector_37" d="M135.777 16.8962C135.777 18.1362 134.777 19.1363 133.537 19.1363C132.297 19.1363 131.297 18.1362 131.297 16.8962C131.297 15.6562 132.297 14.6562 133.537 14.6562C134.767 14.6563 135.777 15.6562 135.777 16.8962Z" fill="var(--fill-0, #EA8E00)"/>
<path id="Vector_38" d="M194.821 21.7384C194.821 23.1684 193.661 24.3284 192.231 24.3284C190.801 24.3284 189.641 23.1684 189.641 21.7384C189.641 20.3084 190.801 19.1484 192.231 19.1484C193.661 19.1484 194.821 20.3084 194.821 21.7384Z" fill="var(--fill-0, #EA8E00)"/>
<path id="Vector_39" d="M217.558 43.5369C217.558 44.3569 216.898 45.0269 216.068 45.0269C215.248 45.0269 214.578 44.3669 214.578 43.5369C214.578 42.7169 215.238 42.0469 216.068 42.0469C216.888 42.0569 217.558 42.7169 217.558 43.5369Z" fill="var(--fill-0, #EA8E00)"/>
<path id="Vector_40" d="M232.573 43.6391C234.12 43.6391 235.373 42.3854 235.373 40.8391C235.373 39.2927 234.12 38.0391 232.573 38.0391C231.027 38.0391 229.773 39.2927 229.773 40.8391C229.773 42.3854 231.027 43.6391 232.573 43.6391Z" fill="var(--fill-0, #EA8E00)"/>
<path id="Vector_41" d="M102.707 34.7169C102.707 36.6069 101.177 38.1369 99.2872 38.1369C97.3972 38.1369 95.8672 36.6069 95.8672 34.7169C95.8672 32.8269 97.3972 31.2969 99.2872 31.2969C101.177 31.2969 102.707 32.8269 102.707 34.7169Z" fill="var(--fill-0, #EA8E00)"/>
<path id="Vector_42" d="M77.7072 182.717C77.7072 184.607 76.1772 186.137 74.2872 186.137C72.3972 186.137 70.8672 184.607 70.8672 182.717C70.8672 180.827 72.3972 179.297 74.2872 179.297C76.1772 179.297 77.7072 180.827 77.7072 182.717Z" fill="var(--fill-0, #EA8E00)"/>
<path id="Vector_43" d="M262.852 167.133C262.852 169.343 261.062 171.133 258.852 171.133C256.641 171.133 254.852 169.343 254.852 167.133C254.852 164.922 256.641 163.133 258.852 163.133C261.062 163.133 262.852 164.922 262.852 167.133Z" fill="var(--fill-0, #EA8E00)"/>
<path id="Vector_44" d="M81.1766 26.7563C81.1766 28.6063 79.6766 30.1063 77.8266 30.1063C75.9766 30.1063 74.4766 28.6063 74.4766 26.7563C74.4766 24.9063 75.9766 23.4062 77.8266 23.4062C79.6766 23.4062 81.1766 24.9063 81.1766 26.7563Z" fill="var(--fill-0, #EA8E00)"/>
<path id="Vector_45" d="M56.1766 174.756C56.1766 176.606 54.6766 178.106 52.8266 178.106C50.9766 178.106 49.4766 176.606 49.4766 174.756C49.4766 172.906 50.9766 171.406 52.8266 171.406C54.6766 171.406 56.1766 172.906 56.1766 174.756Z" fill="var(--fill-0, #EA8E00)"/>
<path id="Vector_46" d="M224 170.5C224 172.433 222.209 174 220 174C217.791 174 216 172.433 216 170.5C216 168.567 217.791 167 220 167C222.209 167 224 168.567 224 170.5Z" fill="var(--fill-0, #EA8E00)"/>
<path id="Vector_47" d="M254.531 18.2303C254.531 18.7303 254.121 19.1403 253.621 19.1403C253.121 19.1403 252.711 18.7303 252.711 18.2303C252.711 17.7303 253.121 17.3203 253.621 17.3203C254.121 17.3203 254.531 17.7303 254.531 18.2303Z" fill="var(--fill-0, #EA8E00)"/>
<path id="Vector_48" d="M232.573 10.8656C234.12 10.8656 235.373 9.61201 235.373 8.06561C235.373 6.51922 234.12 5.26562 232.573 5.26562C231.027 5.26562 229.773 6.51922 229.773 8.06561C229.773 9.61201 231.027 10.8656 232.573 10.8656Z" fill="var(--fill-0, #EA8E00)"/>
<path id="Vector_49" d="M295.318 26.4944C296.632 26.4944 297.698 25.4288 297.698 24.1144C297.698 22.7999 296.632 21.7344 295.318 21.7344C294.003 21.7344 292.938 22.7999 292.938 24.1144C292.938 25.4288 294.003 26.4944 295.318 26.4944Z" fill="var(--fill-0, #EA8E00)"/>
<path id="Vector_50" d="M55.64 25.82C55.64 27.93 53.93 29.64 51.82 29.64C49.71 29.64 48 27.93 48 25.82C48 23.71 49.71 22 51.82 22C53.93 22 55.64 23.71 55.64 25.82Z" fill="var(--fill-0, #EA8E00)"/>
<path id="Vector_51" d="M30.64 173.82C30.64 175.93 28.93 177.64 26.82 177.64C24.71 177.64 23 175.93 23 173.82C23 171.71 24.71 170 26.82 170C28.93 170 30.64 171.71 30.64 173.82Z" fill="var(--fill-0, #EA8E00)"/>
<path id="Vector_52" d="M309 175.5C309 177.986 307.209 180 305 180C302.791 180 301 177.986 301 175.5C301 173.014 302.791 171 305 171C307.209 171 309 173.014 309 175.5Z" fill="var(--fill-0, #EA8E00)"/>
<path id="Vector_53" d="M155.373 11.2569C155.373 12.7569 154.163 13.9669 152.663 13.9669C151.163 13.9669 149.953 12.7569 149.953 11.2569C149.953 9.7569 151.163 8.54688 152.663 8.54688C154.153 8.54688 155.373 9.7669 155.373 11.2569Z" fill="var(--fill-0, #EA8E00)"/>
</g>
<defs>
<clipPath id="clip0_0_20">
<rect width="342" height="189" fill="white"/>
</clipPath>
</defs>
</svg>
