<svg width="402" height="216" viewBox="0 0 402 216" fill="none" xmlns="http://www.w3.org/2000/svg">
<g opacity="0.25">
<path d="M48.001 216.003C21.528 216.003 0 194.475 0 168.002V48.001C0 21.528 21.528 0 48.001 0H353.26C379.733 0 401.261 21.528 401.261 48.001V168.003C401.261 194.476 379.733 216.004 353.26 216.004H48.001V216.003Z" fill="#D32F2F"/>
</g>
<path d="M48.0011 196.808C26.8251 196.808 9.59814 179.581 9.59814 158.405V38.403C9.59814 17.227 26.8251 0 48.0011 0H353.26C374.436 0 391.663 17.227 391.663 38.403V158.405C391.663 179.581 374.436 196.808 353.26 196.808H48.0011Z" fill="#FFA000"/>
<path d="M353.259 168.003H48.001C34.746 168.003 24.001 157.258 24.001 144.003V24.001C24.001 10.746 34.746 0.000976562 48.001 0.000976562H353.26C366.515 0.000976562 377.26 10.746 377.26 24.001V144.002C377.26 157.257 366.514 168.003 353.259 168.003Z" fill="#FFB300"/>
<path d="M94.2569 124.824C94.2569 129.565 93.4409 133.09 91.8069 135.399C90.1729 137.709 87.6839 138.864 84.3379 138.864C80.9919 138.864 78.5029 137.709 76.8699 135.399C75.2359 133.09 74.4199 129.565 74.4199 124.824V64.7179C74.4199 59.4209 75.4359 55.7769 77.4669 53.7839C79.4979 51.7919 83.0429 50.7969 88.1019 50.7969H105.966C115.803 50.7969 123.571 53.4559 129.267 58.7729C134.963 64.0909 137.811 71.2899 137.811 80.3719C137.811 89.6129 135.142 96.8419 129.805 102.06C124.466 107.279 117.058 109.887 107.579 109.887H94.2549V124.824H94.2569ZM94.2569 91.9029H102.801C107.302 91.9029 110.688 90.9379 112.958 89.0049C115.228 87.0729 116.364 84.1949 116.364 80.3719C116.364 76.5089 115.259 73.6499 113.048 71.7979C110.837 69.9459 107.422 69.0199 102.801 69.0199H94.2569V91.9029Z" fill="#FFA000"/>
<path d="M144.489 63.7621C144.489 59.0221 145.304 55.4871 146.939 53.1571C148.572 50.8271 151.062 49.6621 154.407 49.6621C157.753 49.6621 160.241 50.8271 161.875 53.1571C163.508 55.4871 164.325 59.0221 164.325 63.7621V119.447H181.054C185.834 119.447 189.379 120.204 191.689 121.717C193.998 123.232 195.154 125.521 195.154 128.588C195.154 131.695 193.998 134.005 191.689 135.519C189.379 137.034 185.834 137.789 181.054 137.789H157.932C152.794 137.789 149.269 136.914 147.357 135.16C145.445 133.407 144.489 130.121 144.489 125.302V63.7621Z" fill="#FFA000"/>
<path d="M223.267 121.418L220.28 130.201C219.324 133.109 218.039 135.33 216.426 136.863C214.813 138.396 212.931 139.163 210.78 139.163C208.032 139.163 205.77 138.257 203.999 136.444C202.227 134.632 201.34 132.351 201.34 129.603C201.34 128.489 201.42 127.452 201.579 126.496C201.737 125.54 201.976 124.665 202.296 123.867L224.94 62.387C226.573 57.966 228.614 54.719 231.064 52.648C233.514 50.578 236.531 49.541 240.116 49.541C243.501 49.541 246.439 50.527 248.929 52.498C251.417 54.47 253.34 57.329 254.695 61.072L276.742 123.568C277.18 124.882 277.509 126.058 277.728 127.093C277.946 128.13 278.057 129.045 278.057 129.841C278.057 132.589 277.14 134.83 275.309 136.562C273.477 138.295 271.127 139.161 268.259 139.161C265.71 139.161 263.589 138.363 261.896 136.771C260.202 135.179 258.858 132.748 257.863 129.482L255.413 121.416H223.267V121.418ZM228.884 103.136H249.676L239.638 70.872L228.884 103.136Z" fill="#FFA000"/>
<path d="M317.541 57.011C319.214 54.621 320.967 52.779 322.799 51.484C324.63 50.191 326.423 49.542 328.176 49.542C330.366 49.542 332.358 50.438 334.151 52.231C335.943 54.023 336.84 55.995 336.84 58.146C336.84 60.616 335.466 63.783 332.717 67.646L332.299 68.184L312.223 96.802V124.823C312.223 129.564 311.407 133.089 309.773 135.398C308.139 137.708 305.67 138.863 302.364 138.863C299.018 138.863 296.529 137.708 294.896 135.398C293.262 133.089 292.446 129.564 292.446 124.823V96.802L272.371 68.422L272.252 68.243C269.384 64.261 267.95 60.975 267.95 58.385C267.95 55.995 268.867 53.944 270.698 52.231C272.529 50.519 274.8 49.662 277.509 49.662C279.142 49.662 280.774 50.28 282.408 51.514C284.041 52.749 285.793 54.661 287.666 57.25L302.483 78.46L317.541 57.011Z" fill="#FFA000"/>
<path d="M89.2569 116.074C89.2569 120.815 88.4409 124.34 86.8069 126.649C85.1729 128.959 82.6839 130.114 79.3379 130.114C75.9919 130.114 73.5029 128.959 71.8699 126.649C70.2359 124.34 69.4199 120.815 69.4199 116.074V55.9679C69.4199 50.6709 70.4359 47.0269 72.4669 45.0339C74.4979 43.0419 78.0429 42.0469 83.1019 42.0469H100.966C110.803 42.0469 118.571 44.7059 124.267 50.0229C129.963 55.3409 132.811 62.5399 132.811 71.6219C132.811 80.8629 130.142 88.0919 124.805 93.3099C119.466 98.5289 112.058 101.137 102.579 101.137H89.2549V116.074H89.2569ZM89.2569 83.1529H97.8009C102.302 83.1529 105.688 82.1879 107.958 80.2549C110.228 78.3229 111.364 75.4449 111.364 71.6219C111.364 67.7589 110.259 64.8999 108.048 63.0479C105.837 61.1959 102.422 60.2699 97.8009 60.2699H89.2569V83.1529Z" fill="white"/>
<path d="M139.489 55.0121C139.489 50.2721 140.304 46.7371 141.939 44.4071C143.572 42.0771 146.062 40.9121 149.407 40.9121C152.753 40.9121 155.241 42.0771 156.875 44.4071C158.508 46.7371 159.325 50.2721 159.325 55.0121V110.697H176.054C180.834 110.697 184.379 111.454 186.689 112.967C188.998 114.482 190.154 116.771 190.154 119.838C190.154 122.945 188.998 125.255 186.689 126.769C184.379 128.284 180.834 129.039 176.054 129.039H152.932C147.794 129.039 144.269 128.164 142.357 126.41C140.445 124.657 139.489 121.371 139.489 116.552V55.0121Z" fill="white"/>
<path d="M218.267 112.668L215.28 121.451C214.324 124.359 213.039 126.58 211.426 128.113C209.813 129.646 207.931 130.413 205.78 130.413C203.032 130.413 200.77 129.507 198.999 127.694C197.227 125.882 196.34 123.601 196.34 120.853C196.34 119.739 196.42 118.702 196.579 117.746C196.737 116.79 196.976 115.915 197.296 115.117L219.94 53.637C221.573 49.216 223.614 45.969 226.064 43.898C228.514 41.828 231.531 40.791 235.116 40.791C238.501 40.791 241.439 41.777 243.929 43.748C246.417 45.72 248.34 48.579 249.695 52.322L271.742 114.818C272.18 116.132 272.509 117.308 272.728 118.343C272.946 119.38 273.057 120.295 273.057 121.091C273.057 123.839 272.14 126.08 270.309 127.812C268.477 129.545 266.127 130.411 263.259 130.411C260.71 130.411 258.589 129.613 256.896 128.021C255.202 126.429 253.858 123.998 252.863 120.732L250.413 112.666H218.267V112.668ZM223.884 94.386H244.676L234.638 62.122L223.884 94.386Z" fill="white"/>
<path d="M312.541 48.261C314.214 45.871 315.967 44.029 317.799 42.734C319.63 41.441 321.423 40.792 323.176 40.792C325.366 40.792 327.358 41.688 329.151 43.481C330.943 45.273 331.84 47.245 331.84 49.396C331.84 51.866 330.466 55.033 327.717 58.896L327.299 59.434L307.224 88.053V116.074C307.224 120.815 306.408 124.34 304.774 126.649C303.14 128.959 300.671 130.114 297.365 130.114C294.019 130.114 291.53 128.959 289.897 126.649C288.263 124.34 287.447 120.815 287.447 116.074V88.052L267.372 59.672L267.253 59.493C264.385 55.511 262.951 52.225 262.951 49.635C262.951 47.245 263.868 45.194 265.699 43.481C267.53 41.769 269.801 40.912 272.51 40.912C274.143 40.912 275.775 41.53 277.409 42.764C279.042 43.999 280.794 45.911 282.667 48.5L297.484 69.71L312.541 48.261Z" fill="white"/>
</svg>
